<svg width="1200" height="800" viewBox="0 0 1200 800" fill="none" xmlns="http://www.w3.org/2000/svg">
  <rect width="1200" height="800" rx="48" fill="url(#bg)"/>
  <circle cx="214" cy="142" r="110" fill="#38BDF8" fill-opacity="0.18"/>
  <circle cx="1010" cy="647" r="178" fill="#F59E0B" fill-opacity="0.16"/>
  <rect x="116" y="106" width="968" height="588" rx="44" fill="#FFFFFF" fill-opacity="0.08" stroke="#F8FAFC" stroke-opacity="0.2"/>
  <path d="M372 240C372 188.085 414.085 146 466 146H514C565.915 146 608 188.085 608 240V542C608 593.915 565.915 636 514 636H466C414.085 636 372 593.915 372 542V240Z" fill="#E2E8F0"/>
  <rect x="406" y="212" width="168" height="358" rx="44" fill="#0F172A"/>
  <circle cx="490" cy="598" r="15" fill="#94A3B8"/>
  <path d="M676 254C676 231.909 693.909 214 716 214H830C852.091 214 870 231.909 870 254V534C870 556.091 852.091 574 830 574H716C693.909 574 676 556.091 676 534V254Z" fill="#F8FAFC" fill-opacity="0.18"/>
  <path d="M724 272C724 251.013 741.013 234 762 234H784C804.987 234 822 251.013 822 272V395H724V272Z" fill="#F8FAFC"/>
  <rect x="702" y="387" width="142" height="32" rx="16" fill="#F8FAFC"/>
  <path d="M785 419V520C785 540.435 768.435 557 748 557C727.565 557 711 540.435 711 520C711 499.565 727.565 483 748 483C757.604 483 766.353 486.66 772.915 492.669V419H785Z" fill="#F8FAFC"/>
  <path d="M876 299C920 329.667 942 365.667 942 407C942 448.333 920 484.333 876 515" stroke="#F8FAFC" stroke-width="18" stroke-linecap="round"/>
  <path d="M932 254C991.333 296.667 1021 347.667 1021 407C1021 466.333 991.333 517.333 932 560" stroke="#F8FAFC" stroke-opacity="0.75" stroke-width="18" stroke-linecap="round"/>
  <defs>
    <linearGradient id="bg" x1="78" y1="60" x2="1123" y2="759" gradientUnits="userSpaceOnUse">
      <stop stop-color="#1E3A8A"/>
      <stop offset="0.55" stop-color="#0F172A"/>
      <stop offset="1" stop-color="#7C2D12"/>
    </linearGradient>
  </defs>
</svg>
