<svg width="1200" height="800" viewBox="0 0 1200 800" fill="none" xmlns="http://www.w3.org/2000/svg">
  <rect width="1200" height="800" rx="48" fill="url(#bg)"/>
  <circle cx="1034" cy="151" r="136" fill="#22D3EE" fill-opacity="0.18"/>
  <circle cx="195" cy="657" r="156" fill="#34D399" fill-opacity="0.16"/>
  <rect x="116" y="112" width="968" height="576" rx="44" fill="#020617" fill-opacity="0.2" stroke="#E2E8F0" stroke-opacity="0.18"/>
  <rect x="190" y="184" width="820" height="432" rx="30" fill="#0F172A"/>
  <rect x="260" y="260" width="312" height="278" rx="20" fill="#111827"/>
  <rect x="618" y="260" width="312" height="278" rx="20" fill="#111827"/>
  <rect x="308" y="312" width="216" height="36" rx="18" fill="#E2E8F0"/>
  <rect x="308" y="378" width="176" height="24" rx="12" fill="#94A3B8"/>
  <rect x="308" y="420" width="134" height="24" rx="12" fill="#94A3B8"/>
  <rect x="666" y="312" width="216" height="36" rx="18" fill="#E2E8F0"/>
  <rect x="666" y="378" width="176" height="24" rx="12" fill="#94A3B8"/>
  <rect x="666" y="420" width="134" height="24" rx="12" fill="#94A3B8"/>
  <rect x="606" y="230" width="20" height="340" rx="10" fill="#22D3EE"/>
  <rect x="582" y="320" width="68" height="88" rx="20" fill="#ECFEFF"/>
  <circle cx="394" cy="484" r="34" fill="#10B981"/>
  <circle cx="762" cy="484" r="34" fill="#06B6D4"/>
  <path d="M298 586C348.667 559.333 397.333 546 444 546C490.667 546 540 559.333 592 586" stroke="#E2E8F0" stroke-width="10" stroke-linecap="round"/>
  <path d="M666 586C716.667 559.333 765.333 546 812 546C858.667 546 908 559.333 960 586" stroke="#E2E8F0" stroke-width="10" stroke-linecap="round"/>
  <defs>
    <linearGradient id="bg" x1="58" y1="48" x2="1122" y2="764" gradientUnits="userSpaceOnUse">
      <stop stop-color="#0F172A"/>
      <stop offset="0.55" stop-color="#155E75"/>
      <stop offset="1" stop-color="#065F46"/>
    </linearGradient>
  </defs>
</svg>
